<svg width="40" height="40" viewBox="0 0 40 40" fill="none" xmlns="http://www.w3.org/2000/svg">
<path d="M12.2568 18.5118V15.8368C12.2568 15.6785 12.2568 15.6151 12.4635 15.6151C14.2352 15.6151 15.6752 15.5101 16.3902 15.9318C17.1068 16.3518 17.1368 16.9318 17.1485 17.1051C17.1602 17.2785 17.1552 17.5268 16.8218 18.1318C16.4885 18.7368 14.9968 18.7485 13.9202 18.7485H12.4952C12.3202 18.7485 12.2568 18.6851 12.2568 18.5118ZM17.1668 21.3151C17.3319 21.5258 17.4497 21.7696 17.5123 22.0298C17.5749 22.2901 17.5808 22.5607 17.5296 22.8235C17.4784 23.0862 17.3712 23.3348 17.2155 23.5525C17.0597 23.7702 16.859 23.9518 16.6268 24.0851C16.2859 24.2286 15.9201 24.3039 15.5502 24.3068H12.4785C12.3202 24.3068 12.2568 24.3068 12.2568 24.1018V20.9351C12.2568 20.7768 12.2568 20.7135 12.4635 20.7135H14.5052C15.7718 20.7135 16.5635 20.6035 17.1668 21.3151Z" fill="black"/>
<path d="M28.3153 19.8477C28.2304 19.6474 28.1015 19.4689 27.9382 19.3252C27.7749 19.1815 27.5814 19.0764 27.372 19.0177C26.9534 18.9033 26.5153 18.8791 26.0866 18.9466C25.658 19.0141 25.2485 19.1718 24.8853 19.4093C24.5234 19.775 24.2895 20.2481 24.2187 20.7577C24.2187 20.936 24.2187 20.9693 24.4303 20.9693H28.3803C28.5753 20.9693 28.5753 20.9693 28.5587 20.7243C28.54 20.4181 28.4581 20.1193 28.3153 19.8477ZM28.3153 19.8477C28.2304 19.6474 28.0999 19.4689 27.9366 19.3252C27.7733 19.1815 27.5814 19.0764 27.372 19.0177C26.9534 18.9033 26.5153 18.8791 26.0866 18.9466C25.658 19.0141 25.2485 19.1718 24.8853 19.4093C24.5234 19.775 24.2878 20.2481 24.217 20.7577C24.217 20.936 24.217 20.9693 24.4287 20.9693H28.3803C28.5753 20.9693 28.5753 20.9693 28.5587 20.7243C28.54 20.4181 28.4548 20.1193 28.312 19.8477M30.167 4.16602H10.667C8.94309 4.16602 7.28978 4.85083 6.0708 6.06982C4.85181 7.28881 4.16699 8.94211 4.16699 10.666V30.166C4.16699 31.8899 4.85181 33.5432 6.0708 34.7622C7.28978 35.9812 8.94309 36.666 10.667 36.666H30.167C31.8909 36.666 33.5442 35.9812 34.7632 34.7622C35.9822 33.5432 36.667 31.8899 36.667 30.166V10.666C36.667 8.94211 35.9822 7.28881 34.7632 6.06982C33.5442 4.85083 31.8909 4.16602 30.167 4.16602ZM23.797 14.516C23.797 14.3877 23.797 14.3377 23.9437 14.3377H29.2087V15.7043C29.2087 15.7043 29.2137 15.801 29.127 15.801H24.0253C23.797 15.801 23.797 15.801 23.797 15.5743V14.516ZM18.922 26.461C16.922 27.5493 13.5603 27.111 9.57866 27.111V13.6393H15.932C17.557 13.6393 19.4903 14.046 20.0103 15.7677C20.2803 16.5196 20.2639 17.3447 19.9642 18.0853C19.6644 18.826 19.1023 19.4302 18.3853 19.7827C19.0462 20.0273 19.6233 20.4561 20.0481 21.0183C20.4729 21.5806 20.7278 22.2528 20.7825 22.9554C20.8372 23.658 20.6895 24.3616 20.3568 24.9829C20.0241 25.6041 19.5204 26.1171 18.9053 26.461H18.922ZM31.0287 22.626H24.5287C24.3503 22.626 24.187 22.7227 24.2187 22.951C24.4137 23.9093 24.852 24.9177 25.8453 25.0643C26.3698 25.2204 26.9315 25.1965 27.4408 24.9962C27.9501 24.7959 28.3776 24.4309 28.6553 23.9593C28.6553 23.9593 28.737 23.861 28.7853 23.861H30.8987C30.8987 23.861 31.0287 23.861 30.9953 23.9743C30.7725 24.6054 30.4426 25.1935 30.0203 25.7127C29.4555 26.2522 28.7739 26.6543 28.0286 26.8878C27.2832 27.1212 26.494 27.1798 25.7223 27.0589C24.9506 26.938 24.2172 26.6409 23.5789 26.1906C22.9407 25.7404 22.4147 25.1491 22.042 24.4627C21.8127 24.005 21.6698 23.5089 21.6203 22.9993C21.3305 21.7187 21.552 20.3754 22.2378 19.2557C22.9236 18.1359 24.0195 17.3281 25.292 17.0043C28.9803 16.2077 31.3203 18.7427 31.3203 22.3177C31.3258 22.3595 31.3216 22.4019 31.308 22.4418C31.2944 22.4817 31.2719 22.518 31.2421 22.5478C31.2123 22.5776 31.1761 22.6001 31.1362 22.6137C31.0963 22.6273 31.0538 22.6315 31.012 22.626H31.0287ZM27.3887 19.0177C26.9704 18.9017 26.532 18.8778 26.1037 18.9477C25.6753 19.0143 25.292 19.096 24.902 19.4093C24.512 19.721 24.3053 20.2477 24.2353 20.7577C24.2353 20.936 24.2353 20.9693 24.447 20.9693H28.3803C28.5753 20.9693 28.5753 20.9693 28.5587 20.7243C28.54 20.4181 28.4581 20.1193 28.3153 19.8477C28.2304 19.6474 28.1015 19.4689 27.9382 19.3252C27.7749 19.1815 27.5814 19.0764 27.372 19.0177H27.3887Z" fill="black"/>
</svg>
