<svg width="24" height="24" viewBox="0 0 24 24" fill="none" xmlns="http://www.w3.org/2000/svg">
<path d="M19.6958 8.72C19.6623 8.95861 19.5578 9.18162 19.3958 9.36L13.3058 16.12C13.1454 16.3108 12.9481 16.4673 12.7258 16.58C12.5052 16.6871 12.2642 16.7452 12.0191 16.7504C11.7739 16.7556 11.5306 16.7077 11.3058 16.61C11.0712 16.5164 10.8597 16.3731 10.6858 16.19L4.58577 9.36C4.42496 9.17962 4.31761 8.958 4.27577 8.72C4.24275 8.47868 4.27766 8.23294 4.37658 8.01036C4.4755 7.78779 4.63452 7.5972 4.83577 7.46C5.03978 7.33088 5.27448 7.2584 5.51577 7.25H18.5158C18.7597 7.25496 18.9972 7.329 19.2008 7.46352C19.4043 7.59804 19.5656 7.78753 19.6658 8.01C19.7468 8.238 19.7578 8.486 19.6958 8.72Z" fill="black"/>
</svg>
