<svg width="18" height="18" viewBox="0 0 18 18" fill="none" xmlns="http://www.w3.org/2000/svg">
<path d="M5.576 17.48C3.848 17.48 2.36 15.992 2.36 14.216C2.36 12.488 3.8 11.144 5.768 10.952L5.528 10.184C4.88 10.544 3.992 10.832 3.272 10.832C1.544 10.832 0.224 9.344 0.224 7.64C0.224 5.816 1.688 4.4 3.416 4.4C4.736 4.4 6.08 5.48 6.632 6.776L7.256 6.296C6.392 5.504 5.816 4.448 5.816 3.56C5.816 1.76 7.256 0.295999 9.032 0.295999C10.808 0.295999 12.296 1.784 12.296 3.56C12.296 4.448 11.696 5.552 10.856 6.296L11.48 6.776C12.032 5.432 13.352 4.4 14.696 4.4C16.424 4.4 17.888 5.84 17.888 7.64C17.888 9.32 16.496 10.832 14.864 10.832C14.12 10.832 13.376 10.616 12.584 10.184L12.344 10.952C14.264 11.144 15.752 12.488 15.752 14.216C15.752 15.944 14.288 17.48 12.536 17.48C10.712 17.48 9.344 16.088 9.344 14.096C9.344 13.712 9.392 13.352 9.464 13.064H8.648C8.72 13.4 8.768 13.736 8.768 14.096C8.768 16.064 7.4 17.48 5.576 17.48ZM9.032 12.44C10.664 12.44 12.008 11.096 12.008 9.464C12.008 7.832 10.664 6.488 9.032 6.488C7.4 6.488 6.104 7.832 6.104 9.464C6.104 11.12 7.424 12.44 9.032 12.44Z" fill="black"/>
</svg>
