<svg width="40" height="40" viewBox="0 0 40 40" fill="none" xmlns="http://www.w3.org/2000/svg">
<path d="M19.9384 3.9707C0.923425 4.36904 -3.03324 29.884 14.7534 36.004C15.5834 36.159 15.8934 35.639 15.8934 35.2074V32.4074C11.2434 33.409 10.2601 30.2124 10.2601 30.2124C9.94845 29.2117 9.28469 28.3578 8.39176 27.809C6.88842 26.789 8.51176 26.8057 8.51176 26.8057C9.04358 26.8752 9.55186 27.0678 9.99625 27.3681C10.4406 27.6684 10.8089 28.0682 11.0718 28.5357C11.5432 29.3564 12.318 29.9592 13.2294 30.2145C14.1408 30.4698 15.1159 30.3571 15.9451 29.9007C16.0318 29.0674 16.4034 28.2924 17.0001 27.7057C13.2834 27.289 9.39342 25.8724 9.39342 19.5807C9.3713 17.9415 9.99236 16.359 11.1234 15.1724C10.5991 13.7437 10.6609 12.1657 11.2951 10.7824C11.2951 10.7824 12.6951 10.349 15.8951 12.5107C18.6346 11.7686 21.5222 11.7686 24.2618 12.5107C27.4418 10.384 28.8418 10.7807 28.8418 10.7807C29.4501 12.1607 29.5051 13.719 28.9968 15.1374C30.1287 16.3233 30.7495 17.9065 30.7251 19.5457C30.7251 25.8557 26.8184 27.2557 23.1018 27.654C24.8318 28.5707 24.1051 34.464 24.2084 35.1907C24.2084 35.6224 24.5018 36.1407 25.3668 35.9857C43.1034 29.919 38.9534 4.36904 19.9384 3.9707Z" fill="black"/>
</svg>
