<svg width="24" height="24" viewBox="0 0 24 24" fill="none" xmlns="http://www.w3.org/2000/svg">
<path d="M12.9997 8.58C13.7797 8.58 14.4397 9.19 14.4397 10C14.4397 10.81 13.7797 11.44 12.9997 11.44C12.2197 11.44 11.5797 10.78 11.5797 10C11.5797 9.22 12.1897 8.58 12.9997 8.58ZM12.9997 3C16.8797 3 19.9997 6.14 19.9997 10C19.9997 12.8 18.3697 15.19 15.9997 16.31V21H8.99972V18H7.99972C6.88972 18 5.99972 17.11 5.99972 16V13H4.49972C4.07972 13 3.83972 12.5 4.07972 12.19L5.99972 9.66C6.08782 7.8633 6.86395 6.1694 8.16719 4.92945C9.47044 3.6895 11.2009 2.99861 12.9997 3ZM15.9997 10C15.9997 9.84 15.9997 9.75 15.9397 9.61L16.8297 8.95C16.8797 8.91 16.9197 8.77 16.8797 8.67L16.0797 7.31C16.0297 7.22 15.8897 7.17 15.7997 7.22L14.8097 7.64C14.6297 7.45 14.3897 7.31 14.1597 7.22L13.9997 6.19C13.9697 6.05 13.9197 6 13.7797 6H12.1897C12.0897 6 11.9997 6.05 11.9997 6.19L11.8597 7.22C11.6297 7.31 11.3897 7.45 11.1997 7.64L10.1697 7.22C10.0797 7.17 9.99972 7.22 9.93972 7.31L9.13972 8.67C9.08972 8.81 9.08972 8.91 9.18972 8.95L10.0297 9.61C10.0297 9.75 9.99972 9.89 9.99972 10C9.99972 10.13 10.0297 10.27 10.0297 10.41L9.18972 11.06C9.08972 11.11 9.08972 11.2 9.13972 11.3L9.93972 12.7C9.99972 12.8 10.0797 12.8 10.1697 12.8L11.1597 12.37C11.3897 12.56 11.5797 12.66 11.8597 12.75L11.9997 13.83C11.9997 13.92 12.0897 14 12.1897 14H13.7797C13.9197 14 13.9697 13.92 13.9997 13.83L14.1597 12.75C14.3897 12.66 14.6297 12.56 14.8097 12.38L15.7997 12.8C15.8897 12.8 16.0297 12.8 16.0797 12.7L16.8797 11.3C16.9197 11.2 16.8797 11.11 16.8297 11.06L15.9997 10.41V10Z" fill="black"/>
</svg>
