<svg width="16" height="19" viewBox="0 0 16 19" fill="none" xmlns="http://www.w3.org/2000/svg">
<path d="M7.88 18.104C6.992 18.104 6.392 17.264 6.392 16.184C6.392 15.584 6.608 14.672 7.04 13.448C7.472 12.2 7.688 11 7.688 9.752C6.632 10.4 5.84 11.072 5.24 11.744C4.04 13.088 2.864 14.408 1.616 14.408C0.848 14.408 0.224 13.808 0.224 13.088C0.224 12.296 0.872 11.504 2.288 11.12C2.984 10.928 3.776 10.712 4.664 10.544C5.528 10.376 6.488 9.992 7.496 9.416C6.464 8.84 5.48 8.456 4.568 8.264C2.768 7.88 1.328 7.568 0.704 6.848C0.392 6.488 0.224 6.104 0.224 5.696C0.224 4.976 0.8 4.424 1.64 4.424C2.912 4.424 4.4 6.104 5.456 7.304C5.984 7.904 6.728 8.504 7.688 9.08V8.768C7.688 7.808 7.616 7.016 7.424 6.44C7.04 5.288 6.44 3.488 6.44 2.648C6.44 1.544 7.064 0.727999 7.928 0.727999C8.768 0.727999 9.416 1.496 9.416 2.648C9.416 3.224 9.2 4.16 8.768 5.432C8.336 6.704 8.12 7.928 8.12 9.08C9.488 8.216 9.32 8.312 10.496 7.184C11.624 5.936 12.416 5.168 12.848 4.88C13.304 4.568 13.76 4.424 14.24 4.424C15.008 4.424 15.584 4.952 15.584 5.696C15.584 6.512 14.984 7.208 13.592 7.664C12.92 7.88 12.128 8.072 11.24 8.264C10.328 8.456 9.368 8.84 8.312 9.416C9.344 9.992 10.28 10.352 11.168 10.544C12.92 10.928 14.408 11.264 15.08 11.96C15.416 12.32 15.584 12.68 15.584 13.088C15.584 13.808 15.008 14.408 14.168 14.408C12.752 14.408 10.928 12.152 10.232 11.36C9.896 10.976 9.176 10.424 8.12 9.752V10.064C8.12 11.096 8.336 12.248 8.744 13.496C9.152 14.744 9.368 15.632 9.368 16.184C9.368 17.312 8.72 18.104 7.88 18.104Z" fill="black"/>
</svg>
