{
  "accessors": [
    {
      "bufferView": 0,
      "componentType": 5126,
      "count": 37259,
      "max": [
        94.0567398071289,
        232.5160675048828,
        64.86456298828125
      ],
      "min": [
        -97.68296813964844,
        74.74555206298828,
        -40.49372100830078
      ],
      "name": "positions",
      "type": "VEC3"
    },
    {
      "bufferView": 1,
      "componentType": 5125,
      "count": 193494,
      "name": "pos_index",
      "type": "SCALAR"
    },
    {
      "bufferView": 2,
      "componentType": 5126,
      "count": 37259,
      "name": "normals",
      "type": "VEC3"
    },
    {
      "bufferView": 3,
      "componentType": 5126,
      "count": 37259,
      "name": "uvs",
      "type": "VEC2"
    }
  ],
  "asset": {
    "version": "2.0"
  },
  "bufferViews": [
    {
      "buffer": 0,
      "byteLength": 447108,
      "name": "positions",
      "target": 34962
    },
    {
      "buffer": 1,
      "byteLength": 773976,
      "name": "pos_index",
      "target": 34963
    },
    {
      "buffer": 2,
      "byteLength": 447108,
      "name": "normals",
      "target": 34962
    },
    {
      "buffer": 3,
      "byteLength": 298072,
      "name": "uvs",
      "target": 34962
    }
  ],
  "buffers": [
    {
      "byteLength": 447108,
      "name": "positions",
      "uri": "data:application/octet-stream;base64,"
    },
    {
      "byteLength": 773976,
      "name": "pos_index",
      "uri": "data:application/octet-stream;base64,"
    },
    {
      "byteLength": 447108,
      "name": "normals",
      "uri": "data:application/octet-stream;base64,"
    },
    {
      "byteLength": 298072,
      "name": "uvs",
      "uri": "data:application/octet-stream;base64,"
    }
  ],
  "extensionsUsed": [
    "KHR_materials_transmission"
  ],
  "images": [
    {
      "uri": "model_3_color.png"
    },
    {
      "uri": "model_3_metallicRoughness.png"
    },
    {
      "uri": "model_3_transmittance.png"
    }
  ],
  "materials": [
    {
      "doubleSided": true,
      "extensions": {
        "KHR_materials_transmission": {
          "transmissionFactor": 1.0,
          "transmissionTexture": {
            "index": 2
          }
        }
      },
      "name": "Area (4)",
      "pbrMetallicRoughness": {
        "baseColorTexture": {
          "index": 0
        },
        "metallicRoughnessTexture": {
          "index": 1
        }
      }
    }
  ],
  "meshes": [
    {
      "name": "Area (4)",
      "primitives": [
        {
          "attributes": {
            "NORMAL": 2,
            "POSITION": 0,
            "TEXCOORD_0": 3
          },
          "indices": 1,
          "material": 0,
          "mode": 4
        }
      ]
    }
  ],
  "nodes": [
    {
      "mesh": 0,
      "name": "Area (4)"
    }
  ],
  "scene": 0,
  "scenes": [
    {
      "nodes": [
        0
      ]
    }
  ],
  "textures": [
    {
      "source": 0
    },
    {
      "source": 1
    },
    {
      "source": 2
    }
  ]
}
